<?xml version="1.0" encoding="utf-8"?>
<!-- Generator: Adobe Illustrator 24.1.2, SVG Export Plug-In . SVG Version: 6.00 Build 0)  -->
<svg version="1.1" id="Layer_1" xmlns="http://www.w3.org/2000/svg" xmlns:xlink="http://www.w3.org/1999/xlink" x="0px" y="0px"
	 viewBox="0 0 100 100" style="enable-background:new 0 0 100 100;" xml:space="preserve">
<style type="text/css">
	.st0{fill:#33ADAD;}
</style>
<g>
	<path class="st0" d="M75.8,0H24.2c-4.6,0-8.3,3.7-8.3,8.3v76.5c0,4.6,3.7,8.3,8.3,8.3h4.2L27.9,97c-0.1,0.8,0.2,1.6,0.7,2.1
		c0.5,0.5,1.1,0.8,1.8,0.8h4.1c1.2,0,2.2-0.8,2.5-2l1.1-4.8h23.9L63,98c0.3,1.2,1.3,2,2.5,2h4.1c0.7,0,1.4-0.3,1.8-0.8
		c0.5-0.6,0.7-1.3,0.7-2.1l-0.4-3.8h4.2c4.6,0,8.3-3.7,8.3-8.3V8.3C84.1,3.7,80.4,0,75.8,0z M19.3,84.9V8.3c0-2.7,2.2-4.8,4.8-4.8
		h24.1v86.2H35.7H31h-6.8C21.5,89.7,19.3,87.6,19.3,84.9z M33.7,96.5h-2.2l0.4-3.3h2.6L33.7,96.5z M68.5,96.5h-2.2l-0.8-3.3h2.6
		L68.5,96.5z M80.7,84.9c0,2.7-2.2,4.8-4.8,4.8H69h-4.6H51.7V3.5h24.1c2.7,0,4.8,2.2,4.8,4.8V84.9z"/>
	<path class="st0" d="M42.3,51.7c1,0,1.7-0.8,1.7-1.7v-6.8c0-1-0.8-1.7-1.7-1.7s-1.7,0.8-1.7,1.7V50C40.5,51,41.3,51.7,42.3,51.7z"
		/>
	<path class="st0" d="M57.7,41.5c-1,0-1.7,0.8-1.7,1.7V50c0,1,0.8,1.7,1.7,1.7s1.7-0.8,1.7-1.7v-6.8C59.5,42.3,58.7,41.5,57.7,41.5z
		"/>
</g>
</svg>
