<?xml version="1.0" encoding="utf-8"?>
<!-- Generator: Adobe Illustrator 24.1.2, SVG Export Plug-In . SVG Version: 6.00 Build 0)  -->
<svg version="1.1" id="Layer_1" xmlns="http://www.w3.org/2000/svg" xmlns:xlink="http://www.w3.org/1999/xlink" x="0px" y="0px"
	 viewBox="0 0 512 512" style="enable-background:new 0 0 512 512;" xml:space="preserve">
<style type="text/css">
	.st0{fill:#33ADAD;}
</style>
<g>
	<path class="st0" d="M134.5,510c-24.6,0-44.8-19.2-45.9-43.8L74.7,174H64c-7.7,0-14-6.3-14-14v-56c0-21,17-38,38-38h90V48
		c0-25.4,20.6-46,46-46h64c25.4,0,46,20.6,46,46v18h90c21,0,38,17,38,38v56c0,7.7-6.3,14-14,14h-10.7l-13.9,292.2
		c-1.2,24.6-21.4,43.8-45.9,43.8H134.5z M116.5,464.9c0.5,9.6,8.4,17.1,18,17.1h243c9.6,0,17.5-7.5,18-17.1L409.3,174H102.7
		L116.5,464.9z M88,94c-5.5,0-10,4.5-10,10v42h356v-42c0-5.5-4.5-10-10-10H88z M224,30c-9.9,0-18,8.1-18,18v18h100V48
		c0-9.9-8.1-18-18-18H224z"/>
	<path class="st0" d="M256,446c-7.7,0-14-6.3-14-14V224c0-7.7,6.3-14,14-14s14,6.3,14,14v208C270,439.7,263.7,446,256,446z"/>
	<path class="st0" d="M336,446c-7.7,0-14-6.3-14-14V224c0-7.7,6.3-14,14-14s14,6.3,14,14v208C350,439.7,343.7,446,336,446z"/>
	<path class="st0" d="M176,446c-7.7,0-14-6.3-14-14V224c0-7.7,6.3-14,14-14s14,6.3,14,14v208C190,439.7,183.7,446,176,446z"/>
</g>
</svg>
