<?xml version="1.0" encoding="utf-8"?>
<!-- Generator: Adobe Illustrator 24.1.2, SVG Export Plug-In . SVG Version: 6.00 Build 0)  -->
<svg version="1.1" id="Layer_1" xmlns="http://www.w3.org/2000/svg" xmlns:xlink="http://www.w3.org/1999/xlink" x="0px" y="0px"
	 viewBox="0 0 100 100" style="enable-background:new 0 0 100 100;" xml:space="preserve">
<style type="text/css">
	.st0{fill:#33ADAD;}
</style>
<g>
	<g>
		<path class="st0" d="M79.7,99.9c-9.4,0-17.7-6.7-19.8-15.9l-0.6-2.6l-1.3,2.4c-1.6,2.9-3.2,5.2-5.1,7c-5.9,5.9-13.7,9.1-21.9,9.1
			c-8.3,0-16.1-3.2-22-9.1C-3,78.7-3,59,9.1,46.9c5.9-5.9,13.7-9.1,22-9.1c8.3,0,16.1,3.2,21.9,9.1c1.6,1.6,3.1,3.6,4.6,6l1.9,3.2
			V20.3c0-11.2,9.1-20.3,20.3-20.3c11.2,0,20.3,9.1,20.3,20.3v59.3C100,90.8,90.9,99.9,79.7,99.9z M63.8,79.7
			c0,8.8,7.1,15.9,15.9,15.9c4.2,0,8.2-1.7,11.3-4.7c3-3,4.7-7,4.7-11.3V52.2H63.8V79.7z M13.8,89.2l0.9,0.7
			c4.6,3.5,10.4,5.4,16.4,5.4c7.2,0,13.9-2.7,18.7-7.5c9.4-9.4,10.3-24.6,2.1-35.2l-0.7-0.9L13.8,89.2z M31,42.2
			c-7.1,0-13.8,2.8-18.9,7.8C2.7,59.5,1.8,74.6,10,85.2l0.7,0.9l37.5-37.5l-0.9-0.7C42.5,44.2,36.9,42.2,31,42.2z M79.7,4.4
			c-8.8,0-15.9,7.1-15.9,15.9v27.5h31.9V20.3C95.7,11.6,88.5,4.4,79.7,4.4z"/>
	</g>
</g>
</svg>
