<?xml version="1.0" encoding="utf-8"?>
<!-- Generator: Adobe Illustrator 24.1.2, SVG Export Plug-In . SVG Version: 6.00 Build 0)  -->
<svg version="1.1" id="Layer_1" xmlns="http://www.w3.org/2000/svg" xmlns:xlink="http://www.w3.org/1999/xlink" x="0px" y="0px"
	 viewBox="0 0 100 100" style="enable-background:new 0 0 100 100;" xml:space="preserve">
<style type="text/css">
	.st0{fill:#33ADAD;}
</style>
<path class="st0" d="M96.7,48.3l-1.2-26.7l0,0C95.3,9.5,75.4,0,50,0C24.6,0,4.7,9.5,4.6,21.7l0,0L3.3,48.3c-2.1,2.7-3.2,5.6-3.2,8.5
	v19.4C0.2,89.6,22,100,50,100c28,0,49.8-10.4,49.8-23.8V56.9C99.8,53.9,98.8,51,96.7,48.3z M8.5,30.7c3,3.3,7.7,6.1,13.5,8.3
	l-0.4,32.9C14.9,69.6,9.8,66.6,7,63.1L8.5,30.7z M26.2,40.4c6.3,1.8,13.7,2.9,21.6,3.1v32.8c-8-0.2-15.5-1.3-22-3.1L26.2,40.4z
	 M52.2,43.5c8.1-0.2,15.6-1.3,22-3.2l0.4,32.9c-6.6,1.8-14.3,3-22.4,3.2V43.5z M78.9,71.8l-0.4-33c5.6-2.1,10.1-4.9,13.1-8.1
	L93,63.1C90.2,66.5,85.3,69.5,78.9,71.8z M50,4.3c22.3,0,41.1,8,41.1,17.5S72.3,39.2,50,39.2c-22.3,0-41.1-8-41.1-17.5
	S27.7,4.3,50,4.3z M95.5,76.2c0,10.5-20.9,19.5-45.5,19.5c-24.7,0-45.5-8.9-45.5-19.5v-9.5c7.7,8.3,25,13.9,45.5,13.9
	c20.6,0,37.8-5.7,45.5-13.9V76.2z"/>
</svg>
