<?xml version="1.0" encoding="utf-8"?>
<!-- Generator: Adobe Illustrator 24.1.2, SVG Export Plug-In . SVG Version: 6.00 Build 0)  -->
<svg version="1.1" id="Layer_1" xmlns="http://www.w3.org/2000/svg" xmlns:xlink="http://www.w3.org/1999/xlink" x="0px" y="0px"
	 viewBox="0 0 100 100" style="enable-background:new 0 0 100 100;" xml:space="preserve">
<style type="text/css">
	.st0{fill:#33ADAD;}
</style>
<g>
	<g>
		<g>
			<g>
				<path class="st0" d="M93.5,39.1h-8.1c-0.7-2.2-1.6-4.4-2.7-6.4l5.8-5.8c1.2-1.2,1.9-2.9,1.9-4.6c0-1.7-0.7-3.4-1.9-4.6l-6.2-6.2
					c-2.5-2.5-6.8-2.5-9.2,0l-5.8,5.8c-2-1.1-4.2-2-6.4-2.7V6.5c0-3.6-2.9-6.5-6.5-6.5h-8.7c-3.6,0-6.5,2.9-6.5,6.5v8.1
					c-2.2,0.7-4.4,1.6-6.4,2.7l-5.8-5.8c-2.5-2.5-6.7-2.5-9.2,0l-6.2,6.2c-2.5,2.5-2.5,6.7,0,9.2l5.8,5.8c-1.1,2-2,4.2-2.7,6.4H6.5
					c-3.6,0-6.5,2.9-6.5,6.5v8.7c0,3.6,2.9,6.5,6.5,6.5h8.1c0.7,2.2,1.6,4.4,2.7,6.4l-5.8,5.8c-2.5,2.5-2.5,6.7,0,9.2l6.2,6.2
					c2.5,2.5,6.7,2.5,9.2,0l5.8-5.8c2,1.1,4.2,2,6.4,2.7v8.1c0,3.6,2.9,6.5,6.5,6.5h8.7c3.6,0,6.5-2.9,6.5-6.5v-8.1
					c2.2-0.7,4.4-1.6,6.4-2.7l5.8,5.8c2.5,2.5,6.8,2.5,9.2,0l6.2-6.2c1.2-1.2,1.9-2.9,1.9-4.6c0-1.7-0.7-3.4-1.9-4.6l-5.8-5.8
					c1.1-2,2-4.2,2.7-6.4h8.1c3.6,0,6.5-2.9,6.5-6.5v-8.7C100,42.1,97.1,39.1,93.5,39.1z M95.7,54.3c0,1.2-1,2.2-2.2,2.2h-9.8
					c-1,0-1.9,0.7-2.1,1.6c-0.8,3-1.9,5.8-3.5,8.4c-0.5,0.9-0.4,1.9,0.3,2.6l6.9,6.9c0.4,0.4,0.6,1,0.6,1.5s-0.2,1.1-0.6,1.5
					l-6.2,6.2c-0.8,0.8-2.3,0.8-3.1,0l-6.9-6.9c-0.7-0.7-1.8-0.8-2.6-0.3c-2.6,1.5-5.4,2.7-8.4,3.5c-1,0.2-1.6,1.1-1.6,2.1v9.8
					c0,1.2-1,2.2-2.2,2.2h-8.7c-1.2,0-2.2-1-2.2-2.2v-9.8c0-1-0.7-1.9-1.6-2.1c-3-0.8-5.8-1.9-8.4-3.5c-0.3-0.2-0.7-0.3-1.1-0.3
					c-0.6,0-1.1,0.2-1.5,0.6l-6.9,6.9c-0.8,0.8-2.2,0.8-3.1,0l-6.2-6.2c-0.8-0.8-0.8-2.2,0-3.1l6.9-6.9c0.7-0.7,0.8-1.8,0.3-2.6
					c-1.5-2.6-2.7-5.4-3.5-8.4c-0.2-1-1.1-1.6-2.1-1.6H6.5c-1.2,0-2.2-1-2.2-2.2v-8.7c0-1.2,1-2.2,2.2-2.2h9.8c1,0,1.9-0.7,2.1-1.6
					c0.8-3,1.9-5.8,3.5-8.4c0.5-0.9,0.4-1.9-0.3-2.6l-6.9-6.9c-0.8-0.8-0.8-2.2,0-3.1l6.2-6.2c0.9-0.8,2.2-0.8,3.1,0l6.9,6.9
					c0.7,0.7,1.8,0.8,2.6,0.3c2.6-1.5,5.4-2.7,8.4-3.5c1-0.2,1.6-1.1,1.6-2.1V6.5c0-1.2,1-2.2,2.2-2.2h8.7c1.2,0,2.2,1,2.2,2.2v9.8
					c0,1,0.7,1.9,1.6,2.1c3,0.8,5.8,1.9,8.4,3.5c0.9,0.5,1.9,0.4,2.6-0.3l6.9-6.9c0.8-0.8,2.3-0.8,3.1,0l6.2,6.2
					c0.4,0.4,0.6,1,0.6,1.5c0,0.6-0.2,1.1-0.6,1.5l-6.9,6.9c-0.7,0.7-0.8,1.8-0.3,2.6c1.5,2.6,2.7,5.4,3.5,8.4
					c0.2,1,1.1,1.6,2.1,1.6h9.8c1.2,0,2.2,1,2.2,2.2V54.3z"/>
			</g>
		</g>
	</g>
	<g>
		<g>
			<g>
				<path class="st0" d="M50,30.4c-10.8,0-19.6,8.8-19.6,19.6S39.2,69.6,50,69.6c10.8,0,19.6-8.8,19.6-19.6S60.8,30.4,50,30.4z
					 M50,65.2c-8.4,0-15.2-6.8-15.2-15.2S41.6,34.8,50,34.8c8.4,0,15.2,6.8,15.2,15.2S58.4,65.2,50,65.2z"/>
			</g>
		</g>
	</g>
</g>
</svg>
