<?xml version="1.0" encoding="utf-8"?>
<!-- Generator: Adobe Illustrator 24.1.2, SVG Export Plug-In . SVG Version: 6.00 Build 0)  -->
<svg version="1.1" id="Layer_1" xmlns="http://www.w3.org/2000/svg" xmlns:xlink="http://www.w3.org/1999/xlink" x="0px" y="0px"
	 viewBox="0 0 100 100" style="enable-background:new 0 0 100 100;" xml:space="preserve">
<style type="text/css">
	.st0{fill:#33ADAD;}
</style>
<g>
	<path class="st0" d="M32.1,100c-0.4,0-0.7-0.1-1.1-0.3c-0.8-0.5-1.1-1.5-0.8-2.4L47,57.9H20.1c-0.6,0-1.2-0.3-1.6-0.8
		c-0.4-0.5-0.5-1.2-0.3-1.8l17.9-54C36.4,0.5,37.2,0,38,0h35.9c0.7,0,1.4,0.4,1.7,1c0.3,0.6,0.4,1.4,0,2L53.4,42.1h26.5
		c0.8,0,1.5,0.4,1.8,1.2c0.3,0.7,0.2,1.5-0.3,2.1l-47.8,54C33.2,99.8,32.6,100,32.1,100L32.1,100z M22.8,54H50
		c0.7,0,1.3,0.3,1.6,0.9c0.4,0.6,0.4,1.2,0.2,1.9L39.8,85l0,0l35.7-39H50c-0.7,0-1.3-0.4-1.7-1c-0.4-0.6-0.4-1.3,0-2L70.5,3.9H39.5
		L22.8,54z"/>
</g>
</svg>
