<?xml version="1.0" encoding="utf-8"?>
<!-- Generator: Adobe Illustrator 24.1.2, SVG Export Plug-In . SVG Version: 6.00 Build 0)  -->
<svg version="1.1" id="Layer_1" xmlns="http://www.w3.org/2000/svg" xmlns:xlink="http://www.w3.org/1999/xlink" x="0px" y="0px"
	 viewBox="0 0 100 100" style="enable-background:new 0 0 100 100;" xml:space="preserve">
<style type="text/css">
	.st0{fill:#33ADAD;}
</style>
<g>
	<g>
		<g>
			<path class="st0" d="M79.2,16.7c0-4.6-3.7-8.3-8.3-8.3c0-4.6-3.7-8.3-8.3-8.3H31.3c-0.6,0-1.1,0.2-1.5,0.6L13.1,17.3
				c-0.4,0.4-0.6,0.9-0.6,1.5V75c0,4.6,3.7,8.3,8.3,8.3c0,4.6,3.7,8.3,8.3,8.3c0,4.6,3.7,8.3,8.3,8.3h41.7c4.6,0,8.3-3.7,8.3-8.3V25
				C87.5,20.4,83.8,16.7,79.2,16.7 M29.2,7.1v5.4c0,2.3-1.9,4.2-4.2,4.2h-5.4L29.2,7.1z M20.8,79.2c-2.3,0-4.2-1.9-4.2-4.2V20.8H25
				c4.6,0,8.3-3.7,8.3-8.3V4.2h29.2c2.3,0,4.2,1.9,4.2,4.2V75c0,2.3-1.9,4.2-4.2,4.2H20.8z M29.2,87.5c-2.3,0-4.2-1.9-4.2-4.2h37.5
				c4.6,0,8.3-3.7,8.3-8.3V12.5c2.3,0,4.2,1.9,4.2,4.2v66.7c0,2.3-1.9,4.2-4.2,4.2L29.2,87.5L29.2,87.5z M79.2,20.8
				c2.3,0,4.2,1.9,4.2,4.2v66.7c0,2.3-1.9,4.2-4.2,4.2H37.5c-2.3,0-4.2-1.9-4.2-4.2h37.5c4.6,0,8.3-3.7,8.3-8.3V20.8"/>
		</g>
	</g>
</g>
</svg>
