<?xml version="1.0" encoding="utf-8"?>
<!-- Generator: Adobe Illustrator 24.1.2, SVG Export Plug-In . SVG Version: 6.00 Build 0)  -->
<svg version="1.1" id="Layer_1" xmlns="http://www.w3.org/2000/svg" xmlns:xlink="http://www.w3.org/1999/xlink" x="0px" y="0px"
	 viewBox="0 0 100 100" style="enable-background:new 0 0 100 100;" xml:space="preserve">
<style type="text/css">
	.st0{fill:#33ADAD;}
</style>
<g>
	<path class="st0" d="M84.7,47.1l4.9-22.5c0.6,0.1,1.3-0.2,1.8-0.6l8-8c0.9-0.9,0.9-2.3,0-3.2l-12-12c-0.9-0.9-2.3-0.9-3.2,0l-8,8
		c-0.5,0.5-0.7,1.1-0.6,1.8l-22.5,4.9c-0.4,0.1-0.8,0.3-1.1,0.6l-12,12L21.3,46.5L2.7,65.1c-3.5,3.5-3.5,9.3,0,12.9
		c1.9,1.9,4.5,2.8,7.1,2.6c-0.2,2.5,0.7,5.1,2.6,7.1c1.9,1.9,4.5,2.8,7.1,2.6c-0.2,2.5,0.7,5.1,2.6,7.1c3.5,3.5,9.3,3.5,12.9,0
		l18.6-18.6l18.5-18.5l12-12C84.4,47.9,84.6,47.5,84.7,47.1z M85.7,5.4l8.9,8.9l-4.9,4.9l-0.1-0.1l-8.8-8.8l-0.1-0.1L85.7,5.4
		L85.7,5.4z M78.6,14.4l7,7l-5.2,24.1l-10,10L44.6,29.5l10-10L78.6,14.4z M52,74L26,48l15.4-15.4l25.9,25.9L52,74z M25.2,94.2
		c-1.8-1.8-1.8-4.7,0-6.5c0.9-0.9,0.9-2.3,0-3.2c-0.9-0.9-2.3-0.9-3.2,0c-1.8,1.8-4.7,1.8-6.5,0c-1.8-1.8-1.8-4.7,0-6.5
		c0.9-0.9,0.9-2.3,0-3.2c-0.9-0.9-2.3-0.9-3.2,0c-1.8,1.8-4.7,1.8-6.5,0C4,73,4,70.1,5.8,68.3l17.1-17.1l25.9,25.9L31.7,94.2
		C29.9,96,27,96,25.2,94.2z"/>
</g>
</svg>
