<?xml version="1.0" encoding="utf-8"?>
<!-- Generator: Adobe Illustrator 24.1.2, SVG Export Plug-In . SVG Version: 6.00 Build 0)  -->
<svg version="1.1" id="Layer_1" xmlns="http://www.w3.org/2000/svg" xmlns:xlink="http://www.w3.org/1999/xlink" x="0px" y="0px"
	 viewBox="0 0 100 100" style="enable-background:new 0 0 100 100;" xml:space="preserve">
<style type="text/css">
	.st0{fill:#33ADAD;}
</style>
<g>
	<g>
		<path class="st0" d="M10.7,80.9C4.8,80.9,0,76.1,0,70.2V29.8c0-5.9,4.8-10.7,10.7-10.7h70.2c5.9,0,10.7,4.8,10.7,10.7v2.1h2
			c3.5,0,6.4,2.9,6.4,6.4v23.4c0,3.5-2.9,6.4-6.4,6.4h-2v2.1c0,5.9-4.8,10.7-10.7,10.7H10.7z M10.7,23.5c-3.5,0-6.3,2.8-6.3,6.3
			v40.4c0,3.5,2.8,6.3,6.3,6.3h70.2c3.5,0,6.3-2.8,6.3-6.3v-4.3c0-1.2,1-2.2,2.2-2.2h4.2c1.1,0,2.1-0.9,2.1-2.1V38.3
			c0-1.1-0.9-2.1-2.1-2.1h-4.2c-1.2,0-2.2-1-2.2-2.2v-4.3c0-3.5-2.8-6.3-6.3-6.3H10.7z"/>
	</g>
	<g>
		<path class="st0" d="M14.9,68.1c-1.2,0-2.2-1-2.2-2.2V34.1c0-1.2,1-2.2,2.2-2.2s2.2,1,2.2,2.2v31.9C17.1,67.1,16.1,68.1,14.9,68.1
			z"/>
	</g>
</g>
</svg>
