<?xml version="1.0" encoding="utf-8"?>
<!-- Generator: Adobe Illustrator 24.1.2, SVG Export Plug-In . SVG Version: 6.00 Build 0)  -->
<svg version="1.1" id="Layer_1" xmlns="http://www.w3.org/2000/svg" xmlns:xlink="http://www.w3.org/1999/xlink" x="0px" y="0px"
	 viewBox="0 0 512 512" style="enable-background:new 0 0 512 512;" xml:space="preserve">
<style type="text/css">
	.st0{fill:#33ADAD;}
	.st1{fill:#FFFFFF;}
</style>
<path class="st0" d="M407.6,87.7C376.5,34.1,321.3,1.3,259.9,0c-2.6-0.1-5.3-0.1-7.9,0c-61.4,1.3-116.6,34-147.6,87.6
	c-31.8,54.8-32.6,120.7-2.3,176.1l127,232.4c0.1,0.1,0.1,0.2,0.2,0.3c5.6,9.7,15.6,15.5,26.8,15.5c11.2,0,21.2-5.8,26.8-15.5
	c0.1-0.1,0.1-0.2,0.2-0.3l127-232.4C440.2,208.3,439.3,142.5,407.6,87.7z"/>
<g>
	<g>
		<g>
			<g>
				<path class="st1" d="M343.2,155.8H327c-1.4-4.4-3.2-8.8-5.4-12.8l11.6-11.6c2.4-2.4,3.8-5.8,3.8-9.2c0-3.4-1.4-6.8-3.8-9.2
					l-12.4-12.4c-5-5-13.6-5-18.4,0l-11.6,11.6c-4-2.2-8.4-4-12.8-5.4V90.5c0-7.2-5.8-13-13-13h-17.4c-7.2,0-13,5.8-13,13v16.2
					c-4.4,1.4-8.8,3.2-12.8,5.4l-11.6-11.6c-5-5-13.4-5-18.4,0l-12.4,12.4c-5,5-5,13.4,0,18.4l11.6,11.6c-2.2,4-4,8.4-5.4,12.8H169
					c-7.2,0-13,5.8-13,13v17.4c0,7.2,5.8,13,13,13h16.2c1.4,4.4,3.2,8.8,5.4,12.8L179,223.6c-5,5-5,13.4,0,18.4l12.4,12.4
					c5,5,13.4,5,18.4,0l11.6-11.6c4,2.2,8.4,4,12.8,5.4v16.2c0,7.2,5.8,13,13,13h17.4c7.2,0,13-5.8,13-13v-16.2
					c4.4-1.4,8.8-3.2,12.8-5.4l11.6,11.6c5,5,13.6,5,18.4,0L333,242c2.4-2.4,3.8-5.8,3.8-9.2c0-3.4-1.4-6.8-3.8-9.2L321.4,212
					c2.2-4,4-8.4,5.4-12.8H343c7.2,0,13-5.8,13-13v-17.4C356.2,161.8,350.4,155.8,343.2,155.8z M347.6,186.2c0,2.4-2,4.4-4.4,4.4
					h-19.6c-2,0-3.8,1.4-4.2,3.2c-1.6,6-3.8,11.6-7,16.8c-1,1.8-0.8,3.8,0.6,5.2l13.8,13.8c0.8,0.8,1.2,2,1.2,3s-0.4,2.2-1.2,3
					L314.4,248c-1.6,1.6-4.6,1.6-6.2,0l-13.8-13.8c-1.4-1.4-3.6-1.6-5.2-0.6c-5.2,3-10.8,5.4-16.8,7c-2,0.4-3.2,2.2-3.2,4.2v19.6
					c0,2.4-2,4.4-4.4,4.4h-17.4c-2.4,0-4.4-2-4.4-4.4v-19.6c0-2-1.4-3.8-3.2-4.2c-6-1.6-11.6-3.8-16.8-7c-0.6-0.4-1.4-0.6-2.2-0.6
					c-1.2,0-2.2,0.4-3,1.2L203.8,248c-1.6,1.6-4.4,1.6-6.2,0l-12.4-12.4c-1.6-1.6-1.6-4.4,0-6.2l13.8-13.8c1.4-1.4,1.6-3.6,0.6-5.2
					c-3-5.2-5.4-10.8-7-16.8c-0.4-2-2.2-3.2-4.2-3.2H169c-2.4,0-4.4-2-4.4-4.4v-17.4c0-2.4,2-4.4,4.4-4.4h19.6c2,0,3.8-1.4,4.2-3.2
					c1.6-6,3.8-11.6,7-16.8c1-1.8,0.8-3.8-0.6-5.2l-13.8-13.8c-1.6-1.6-1.6-4.4,0-6.2l12.4-12.4c1.8-1.6,4.4-1.6,6.2,0l13.8,13.8
					c1.4,1.4,3.6,1.6,5.2,0.6c5.2-3,10.8-5.4,16.8-7c2-0.4,3.2-2.2,3.2-4.2V90.5c0-2.4,2-4.4,4.4-4.4h17.4c2.4,0,4.4,2,4.4,4.4v19.6
					c0,2,1.4,3.8,3.2,4.2c6,1.6,11.6,3.8,16.8,7c1.8,1,3.8,0.8,5.2-0.6l13.8-13.8c1.6-1.6,4.6-1.6,6.2,0l12.4,12.4
					c0.8,0.8,1.2,2,1.2,3c0,1.2-0.4,2.2-1.2,3l-13.8,13.8c-1.4,1.4-1.6,3.6-0.6,5.2c3,5.2,5.4,10.8,7,16.8c0.4,2,2.2,3.2,4.2,3.2
					h19.6c2.4,0,4.4,2,4.4,4.4v17.4H347.6z"/>
			</g>
		</g>
	</g>
	<g>
		<g>
			<g>
				<path class="st1" d="M256.1,138.3c-21.6,0-39.2,17.6-39.2,39.2s17.6,39.2,39.2,39.2s39.2-17.6,39.2-39.2
					S277.7,138.3,256.1,138.3z M256.1,208c-16.8,0-30.4-13.6-30.4-30.4s13.6-30.4,30.4-30.4s30.4,13.6,30.4,30.4
					S272.9,208,256.1,208z"/>
			</g>
		</g>
	</g>
</g>
</svg>
