<?xml version="1.0" encoding="utf-8"?>
<!-- Generator: Adobe Illustrator 24.1.2, SVG Export Plug-In . SVG Version: 6.00 Build 0)  -->
<svg version="1.1" id="Layer_1" xmlns="http://www.w3.org/2000/svg" xmlns:xlink="http://www.w3.org/1999/xlink" x="0px" y="0px"
	 viewBox="0 0 512 512" style="enable-background:new 0 0 512 512;" xml:space="preserve">
<style type="text/css">
	.st0{fill:#33ADAD;}
	.st1{fill:#FFFFFF;}
</style>
<path class="st0" d="M407.6,87.7C376.5,34.1,321.3,1.3,259.9,0c-2.6-0.1-5.3-0.1-7.9,0c-61.4,1.3-116.6,34-147.6,87.6
	c-31.8,54.8-32.6,120.7-2.3,176.1l127,232.4c0.1,0.1,0.1,0.2,0.2,0.3c5.6,9.7,15.6,15.5,26.8,15.5c11.2,0,21.2-5.8,26.8-15.5
	c0.1-0.1,0.1-0.2,0.2-0.3l127-232.4C440.2,208.3,439.3,142.5,407.6,87.7z"/>
<g>
	<g>
		<path class="st1" d="M315.2,277.3c-18.8,0-35.4-13.4-39.6-31.8l-1.2-5.2l-2.6,4.8c-3.2,5.8-6.4,10.4-10.2,14
			c-11.8,11.8-27.4,18.2-43.8,18.2c-16.6,0-32.2-6.4-44-18.2c-24-24.2-24-63.5,0.2-87.7c11.8-11.8,27.4-18.2,44-18.2
			s32.2,6.4,43.8,18.2c3.2,3.2,6.2,7.2,9.2,12l3.8,6.4v-71.5c0-22.4,18.2-40.6,40.6-40.6c22.4,0,40.6,18.2,40.6,40.6v118.5
			C355.8,259.1,337.6,277.3,315.2,277.3z M283.5,236.9c0,17.6,14.2,31.8,31.8,31.8c8.4,0,16.4-3.4,22.6-9.4c6-6,9.4-14,9.4-22.6V182
			h-63.7V236.9z M183.6,255.9l1.8,1.4c9.2,7,20.8,10.8,32.8,10.8c14.4,0,27.8-5.4,37.4-15c18.8-18.8,20.6-49.2,4.2-70.3l-1.4-1.8
			L183.6,255.9z M217.9,162c-14.2,0-27.6,5.6-37.8,15.6c-18.8,19-20.6,49.2-4.2,70.3l1.4,1.8l74.9-74.9l-1.8-1.4
			C240.9,166,229.7,162,217.9,162z M315.2,86.5c-17.6,0-31.8,14.2-31.8,31.8v55h63.7v-55C347.2,100.8,332.8,86.5,315.2,86.5z"/>
	</g>
</g>
</svg>
