<?xml version="1.0" encoding="utf-8"?>
<!-- Generator: Adobe Illustrator 24.1.2, SVG Export Plug-In . SVG Version: 6.00 Build 0)  -->
<svg version="1.1" id="Layer_1" xmlns="http://www.w3.org/2000/svg" xmlns:xlink="http://www.w3.org/1999/xlink" x="0px" y="0px"
	 viewBox="0 0 512 512" style="enable-background:new 0 0 512 512;" xml:space="preserve">
<style type="text/css">
	.st0{fill:#33ADAD;}
	.st1{fill:#FFFFFF;}
</style>
<path class="st0" d="M407.6,87.7C376.5,34.1,321.3,1.3,259.9,0c-2.6-0.1-5.3-0.1-7.9,0c-61.4,1.3-116.6,34-147.6,87.6
	c-31.8,54.8-32.6,120.7-2.3,176.1l127,232.4c0.1,0.1,0.1,0.2,0.2,0.3c5.6,9.7,15.6,15.5,26.8,15.5c11.2,0,21.2-5.8,26.8-15.5
	c0.1-0.1,0.1-0.2,0.2-0.3l127-232.4C440.2,208.3,439.3,142.5,407.6,87.7z"/>
<path class="st1" d="M350.6,164.5C350.6,164.5,350.6,164.5,350.6,164.5L269,82.9c-3.5-3.5-8.1-5.4-13-5.4s-9.5,1.9-13,5.4
	l-81.5,81.5c0,0-0.1,0.1-0.1,0.1c-7.1,7.2-7.1,18.8,0,26c3.3,3.3,7.6,5.2,12.2,5.4c0.2,0,0.4,0,0.6,0h3.3v60
	c0,11.9,9.7,21.5,21.5,21.5h31.9c3.2,0,5.9-2.6,5.9-5.9v-47.1c0-5.4,4.4-9.8,9.8-9.8h18.8c5.4,0,9.8,4.4,9.8,9.8v47.1
	c0,3.2,2.6,5.9,5.9,5.9H313c11.9,0,21.5-9.7,21.5-21.5v-60h3c4.9,0,9.5-1.9,13-5.4C357.8,183.3,357.8,171.7,350.6,164.5z
	 M342.3,182.2c-1.3,1.3-2.9,2-4.7,2h-8.9c-3.2,0-5.9,2.6-5.9,5.9V256c0,5.4-4.4,9.8-9.8,9.8H287v-41.2c0-11.9-9.7-21.5-21.5-21.5
	h-18.8c-11.9,0-21.6,9.7-21.6,21.5v41.2H199c-5.4,0-9.8-4.4-9.8-9.8v-65.9c0-3.2-2.6-5.9-5.9-5.9h-8.7c-0.1,0-0.2,0-0.3,0
	c-1.7,0-3.4-0.7-4.6-2c-2.6-2.6-2.6-6.9,0-9.5c0,0,0,0,0,0l0,0l81.6-81.6c1.3-1.3,2.9-2,4.7-2c1.8,0,3.5,0.7,4.7,2l81.6,81.6
	c0,0,0,0,0,0C344.9,175.4,344.9,179.6,342.3,182.2z"/>
</svg>
