<?xml version="1.0" encoding="utf-8"?>
<!-- Generator: Adobe Illustrator 24.1.2, SVG Export Plug-In . SVG Version: 6.00 Build 0)  -->
<svg version="1.1" id="Layer_1" xmlns="http://www.w3.org/2000/svg" xmlns:xlink="http://www.w3.org/1999/xlink" x="0px" y="0px"
	 viewBox="0 0 512 512" style="enable-background:new 0 0 512 512;" xml:space="preserve">
<style type="text/css">
	.st0{fill:#33ADAD;}
	.st1{fill:#FFFFFF;}
</style>
<path class="st0" d="M407.6,87.7C376.5,34.1,321.3,1.3,259.9,0c-2.6-0.1-5.3-0.1-7.9,0c-61.4,1.3-116.6,34-147.6,87.6
	c-31.8,54.8-32.6,120.7-2.3,176.1l127,232.4c0.1,0.1,0.1,0.2,0.2,0.3c5.6,9.7,15.6,15.5,26.8,15.5c11.2,0,21.2-5.8,26.8-15.5
	c0.1-0.1,0.1-0.2,0.2-0.3l127-232.4C440.2,208.3,439.3,142.5,407.6,87.7z"/>
<g>
	<path class="st1" d="M165.8,277.5c-2.2,0-4-1.8-4-4s1.8-4,4-4h17.8v-188c0-2.2,1.8-4,4-4h136.8c2.2,0,4,1.8,4,4v188h17.8
		c2.2,0,4,1.8,4,4s-1.8,4-4,4H165.8z M282.3,216.8c2.2,0,4,1.8,4,4v48.7h34.1V85.5H191.6v184.1h34.1v-48.7c0-2.2,1.8-4,4-4H282.3z
		 M233.6,269.5h44.7v-44.7h-44.7V269.5z"/>
	<path class="st1" d="M213.9,141.2c-2.2,0-4-1.8-4-4v-29.3c0-2.2,1.8-4,4-4h29.3c2.2,0,4,1.8,4,4v29.3c0,2.2-1.8,4-4,4H213.9z
		 M217.8,133.2h21.3v-21.3h-21.3V133.2z"/>
	<path class="st1" d="M268.8,141.2c-2.2,0-4-1.8-4-4v-29.3c0-2.2,1.8-4,4-4h29.3c2.2,0,4,1.8,4,4v29.3c0,2.2-1.8,4-4,4H268.8z
		 M272.8,133.2h21.3v-21.3h-21.3V133.2z"/>
	<path class="st1" d="M213.9,196.8c-2.2,0-4-1.8-4-4v-29.3c0-2.2,1.8-4,4-4h29.3c2.2,0,4,1.8,4,4v29.3c0,2.2-1.8,4-4,4H213.9z
		 M217.8,188.8h21.3v-21.3h-21.3V188.8z"/>
	<path class="st1" d="M268.8,196.8c-2.2,0-4-1.8-4-4v-29.3c0-2.2,1.8-4,4-4h29.3c2.2,0,4,1.8,4,4v29.3c0,2.2-1.8,4-4,4H268.8z
		 M272.8,188.8h21.3v-21.3h-21.3V188.8z"/>
</g>
</svg>
