<?xml version="1.0" encoding="utf-8"?>
<!-- Generator: Adobe Illustrator 24.1.2, SVG Export Plug-In . SVG Version: 6.00 Build 0)  -->
<svg version="1.1" id="Layer_1" xmlns="http://www.w3.org/2000/svg" xmlns:xlink="http://www.w3.org/1999/xlink" x="0px" y="0px"
	 viewBox="0 0 512 512" style="enable-background:new 0 0 512 512;" xml:space="preserve">
<style type="text/css">
	.st0{fill:#33ADAD;}
	.st1{fill:#FFFFFF;}
</style>
<path class="st0" d="M407.6,87.7C376.5,34.1,321.3,1.3,259.9,0c-2.6-0.1-5.3-0.1-7.9,0c-61.4,1.3-116.6,34-147.6,87.6
	c-31.8,54.8-32.6,120.7-2.3,176.1l127,232.4c0.1,0.1,0.1,0.2,0.2,0.3c5.6,9.7,15.6,15.5,26.8,15.5c11.2,0,21.2-5.8,26.8-15.5
	c0.1-0.1,0.1-0.2,0.2-0.3l127-232.4C440.2,208.3,439.3,142.5,407.6,87.7z"/>
<path class="st1" d="M349.2,174.2l-2.5-53.4l0,0c-0.2-24.3-40-43.3-90.8-43.3c-50.8,0-90.6,19-90.8,43.3l0,0l-2.5,53.4
	c-4.2,5.4-6.4,11.1-6.4,17.1V230c0,26.7,43.8,47.5,99.7,47.5c55.9,0,99.7-20.9,99.7-47.5v-38.7C355.6,185.3,353.4,179.6,349.2,174.2
	z M172.8,138.9c6,6.6,15.3,12.2,27,16.5l-0.9,65.9c-13.2-4.6-23.4-10.7-29.1-17.6L172.8,138.9z M208.4,158.3
	c12.6,3.6,27.3,5.8,43.2,6.2v65.6c-16-0.3-31.1-2.5-44.1-6.1L208.4,158.3z M260.2,164.5c16.2-0.3,31.2-2.6,44-6.4l0.9,65.7
	c-13.1,3.7-28.5,6-44.9,6.3V164.5z M313.7,221.1l-0.9-65.9c11.2-4.3,20.2-9.8,26.1-16.2l3,64.8C336.4,210.5,326.5,216.5,313.7,221.1
	z M255.9,86.1c44.6,0,82.2,16,82.2,34.9s-37.7,34.9-82.2,34.9c-44.6,0-82.2-16-82.2-34.9S211.3,86.1,255.9,86.1z M347,230
	c0,21.1-41.7,38.9-91.1,38.9c-49.4,0-91.1-17.8-91.1-38.9v-19.1c15.4,16.6,49.9,27.9,91.1,27.9c41.1,0,75.7-11.3,91.1-27.9V230z"/>
</svg>
