<?xml version="1.0" encoding="utf-8"?>
<!-- Generator: Adobe Illustrator 24.1.2, SVG Export Plug-In . SVG Version: 6.00 Build 0)  -->
<svg version="1.1" id="Layer_1" xmlns="http://www.w3.org/2000/svg" xmlns:xlink="http://www.w3.org/1999/xlink" x="0px" y="0px"
	 viewBox="0 0 512 512" style="enable-background:new 0 0 512 512;" xml:space="preserve">
<style type="text/css">
	.st0{fill:#33ADAD;}
	.st1{fill:#FFFFFF;}
</style>
<path class="st0" d="M407.6,87.7C376.5,34.1,321.3,1.3,259.9,0c-2.6-0.1-5.3-0.1-7.9,0c-61.4,1.3-116.6,34-147.6,87.6
	c-31.8,54.8-32.6,120.7-2.3,176.1l127,232.4c0.1,0.1,0.1,0.2,0.2,0.3c5.6,9.7,15.6,15.5,26.8,15.5c11.2,0,21.2-5.8,26.8-15.5
	c0.1-0.1,0.1-0.2,0.2-0.3l127-232.4C440.2,208.3,439.3,142.5,407.6,87.7z"/>
<g>
	<g>
		<g>
			<path class="st1" d="M337.5,104.5c-0.9-0.5-2-0.4-3,0l-14.4,7.3l-11.2-19.3c-3.8-7.2-11.4-11.7-19.5-11.7h-55.6
				c-8.3,0-16,4.4-20.3,11.5L203.2,109c-1,1.6-0.5,3.6,1,4.6l36.7,23.3c0.5,0.3,1.2,0.5,1.8,0.5c0.3,0,0.6,0,0.8-0.1
				c0.9-0.2,1.6-0.8,2.1-1.6l14-25.2l15.3,29l-14,8.4c-1.2,0.7-1.8,2.2-1.5,3.6c0.3,1.4,1.5,2.4,2.9,2.6l49.6,5.6c0.1,0,0.3,0,0.4,0
				c1.3,0,2.4-0.7,3-1.9l23.7-49C339.8,107.3,339.1,105.3,337.5,104.5z M241.5,129.4l-30.9-19.7l8.6-14c3.1-5.1,8.6-8.2,14.6-8.3
				h13.5l8.3,16.6L241.5,129.4z M310.3,152.9l-37.5-4.3l8.2-4.9c1.5-0.9,2.1-2.8,1.2-4.4l-27.4-51.8h34.4c5.8,0,11.1,3.2,13.8,8.3
				l12.8,22c0.9,1.5,2.8,2.1,4.4,1.3l8.4-4.2L310.3,152.9z"/>
		</g>
	</g>
	<g>
		<g>
			<path class="st1" d="M353.1,174.1l-10.8-21.5c-0.8-1.6-2.8-2.3-4.5-1.5c-0.1,0-0.1,0.1-0.2,0.1l-40,23.3
				c-1.6,0.9-2.1,2.9-1.2,4.5l13.9,25.1h-31v-13.3c0-1.8-1.5-3.3-3.3-3.3c-0.9,0-1.8,0.4-2.5,1.1l-33.3,36.7c-1.1,1.2-1.2,3-0.2,4.3
				l33.3,43.3c1.1,1.5,3.2,1.7,4.7,0.6c0.8-0.6,1.3-1.6,1.3-2.6v-10h23.3c8.2,0.2,15.8-4.3,19.5-11.7l23.3-40l6.9-11.2
				C357,190.7,357.2,181.6,353.1,174.1z M316.4,245.8c-2.6,5.2-7.9,8.4-13.7,8.3H276c-1.8,0-3.3,1.5-3.3,3.3v3.5L247,227.6
				l25.7-28.2v8c0,1.8,1.5,3.3,3.3,3.3h60.9L316.4,245.8z M346.8,194.4l-6,9.7H318l-14.1-25.4l34.1-19.9l9.2,18.5
				C350.2,182.6,350,189.2,346.8,194.4z"/>
		</g>
	</g>
	<g>
		<g>
			<path class="st1" d="M235.7,179.4l-20-43.3c-0.6-1.3-1.9-2-3.2-1.9l-53.3,3.3c-1.8,0.1-3.2,1.7-3.1,3.5c0.1,1.1,0.7,2.1,1.6,2.6
				l0,0l16.5,10.2l-11,22c-4,7.2-4,16,0.1,23.3l18.5,32l10.1,17.6c4.4,7.4,12.3,12,20.9,12.1H226c1.8,0,3.3-1.5,3.3-3.3v-46.7
				c0-1.8-1.5-3.3-3.3-3.3h-24.9l16.6-28.8l13.7,5.3c1.7,0.7,3.6-0.2,4.3-1.9C236.1,181.1,236.1,180.2,235.7,179.4z M222.7,214.1v40
				h-10c-6.2-0.1-11.9-3.4-15.1-8.7l-9.1-15.9l9.4-15.4H222.7z M217.5,171.4c-1.5-0.6-3.3,0-4.1,1.4l-28.8,50l-15.7-27
				c-2.9-5.3-2.8-11.6,0.1-16.8l12.4-24.8c0.8-1.5,0.2-3.4-1.2-4.3l-10.2-6.3l40.6-2.5l15.6,33.8L217.5,171.4z"/>
		</g>
	</g>
</g>
</svg>
