<?xml version="1.0" encoding="utf-8"?>
<!-- Generator: Adobe Illustrator 24.1.2, SVG Export Plug-In . SVG Version: 6.00 Build 0)  -->
<svg version="1.1" id="Layer_1" xmlns="http://www.w3.org/2000/svg" xmlns:xlink="http://www.w3.org/1999/xlink" x="0px" y="0px"
	 viewBox="0 0 512 512" style="enable-background:new 0 0 512 512;" xml:space="preserve">
<style type="text/css">
	.st0{fill:#33ADAD;}
	.st1{fill:#FFFFFF;}
</style>
<path class="st0" d="M407.6,87.7C376.5,34.1,321.3,1.3,259.9,0c-2.6-0.1-5.3-0.1-7.9,0c-61.4,1.3-116.6,34-147.6,87.6
	c-31.8,54.8-32.6,120.7-2.3,176.1l127,232.4c0.1,0.1,0.1,0.2,0.2,0.3c5.6,9.7,15.6,15.5,26.8,15.5c11.2,0,21.2-5.8,26.8-15.5
	c0.1-0.1,0.1-0.2,0.2-0.3l127-232.4C440.2,208.3,439.3,142.5,407.6,87.7z"/>
<g>
	<path class="st1" d="M208.2,277.5c-9.7,0-17.6-7.6-18.1-17.2l-5.5-115h-4.2c-3,0-5.5-2.5-5.5-5.5v-22c0-8.2,6.7-15,15-15h35.4v-7.1
		c0-10,8.1-18.1,18.1-18.1h25.2c10,0,18.1,8.1,18.1,18.1v7.1h35.4c8.2,0,15,6.7,15,15v22c0,3-2.5,5.5-5.5,5.5h-4.2l-5.5,115
		c-0.5,9.7-8.4,17.2-18.1,17.2H208.2z M201.1,259.7c0.2,3.8,3.3,6.7,7.1,6.7h95.7c3.8,0,6.9-3,7.1-6.7l5.5-114.5H195.7L201.1,259.7z
		 M189.9,113.7c-2.2,0-3.9,1.8-3.9,3.9v16.5h140.2v-16.5c0-2.2-1.8-3.9-3.9-3.9H189.9z M243.5,88.5c-3.9,0-7.1,3.2-7.1,7.1v7.1h39.4
		v-7.1c0-3.9-3.2-7.1-7.1-7.1H243.5z"/>
	<path class="st1" d="M256.1,252.3c-3,0-5.5-2.5-5.5-5.5v-81.9c0-3,2.5-5.5,5.5-5.5c3,0,5.5,2.5,5.5,5.5v81.9
		C261.6,249.8,259.1,252.3,256.1,252.3z"/>
	<path class="st1" d="M287.5,252.3c-3,0-5.5-2.5-5.5-5.5v-81.9c0-3,2.5-5.5,5.5-5.5c3,0,5.5,2.5,5.5,5.5v81.9
		C293.1,249.8,290.6,252.3,287.5,252.3z"/>
	<path class="st1" d="M224.6,252.3c-3,0-5.5-2.5-5.5-5.5v-81.9c0-3,2.5-5.5,5.5-5.5s5.5,2.5,5.5,5.5v81.9
		C230.1,249.8,227.6,252.3,224.6,252.3z"/>
</g>
</svg>
