<?xml version="1.0" encoding="utf-8"?>
<!-- Generator: Adobe Illustrator 24.1.2, SVG Export Plug-In . SVG Version: 6.00 Build 0)  -->
<svg version="1.1" id="Layer_1" xmlns="http://www.w3.org/2000/svg" xmlns:xlink="http://www.w3.org/1999/xlink" x="0px" y="0px"
	 viewBox="0 0 512 512" style="enable-background:new 0 0 512 512;" xml:space="preserve">
<style type="text/css">
	.st0{fill:#19E419;}
	.st1{fill:#FFFFFF;}
</style>
<path class="st0" d="M407.6,87.7C376.5,34.1,321.3,1.3,259.9,0c-2.6-0.1-5.3-0.1-7.9,0c-61.4,1.3-116.6,34-147.6,87.6
	c-31.8,54.8-32.6,120.7-2.3,176.1l127,232.4c0.1,0.1,0.1,0.2,0.2,0.3c5.6,9.7,15.6,15.5,26.8,15.5c11.2,0,21.2-5.8,26.8-15.5
	c0.1-0.1,0.1-0.2,0.2-0.3l127-232.4C440.2,208.3,439.3,142.5,407.6,87.7z"/>
<g>
	<path class="st1" d="M198.3,273.5c-8.2,0-14.8-6.6-14.8-14.8V96.4c0-8.2,6.6-14.8,14.8-14.8h80.8c0.9,0,1.7,0.3,2.3,1l46.2,46.2
		c0.6,0.6,1,1.5,1,2.3v127.7c0,8.2-6.6,14.8-14.8,14.8L198.3,273.5L198.3,273.5z M198.3,88.1c-4.6,0-8.3,3.7-8.3,8.3v162.3
		c0,4.6,3.7,8.3,8.3,8.3h115.4c4.6,0,8.3-3.7,8.3-8.3V134.2h-31.3c-8.2,0-14.8-6.6-14.8-14.8V88.1H198.3z M282.3,119.4
		c0,4.6,3.7,8.3,8.3,8.3h26.7l-35-35V119.4z"/>
	<path class="st1" d="M221.4,169.6c-1.8,0-3.3-1.5-3.3-3.3s1.5-3.3,3.3-3.3h69.2c1.8,0,3.3,1.5,3.3,3.3s-1.5,3.3-3.3,3.3H221.4z"/>
	<path class="st1" d="M221.4,192.7c-1.8,0-3.3-1.5-3.3-3.3s1.5-3.3,3.3-3.3h69.2c1.8,0,3.3,1.5,3.3,3.3s-1.5,3.3-3.3,3.3H221.4z"/>
	<path class="st1" d="M221.4,215.8c-1.8,0-3.3-1.5-3.3-3.3s1.5-3.3,3.3-3.3h69.2c1.8,0,3.3,1.5,3.3,3.3s-1.5,3.3-3.3,3.3H221.4z"/>
	<path class="st1" d="M221.4,238.9c-1.8,0-3.3-1.5-3.3-3.3s1.5-3.3,3.3-3.3h46.2c1.8,0,3.3,1.5,3.3,3.3s-1.5,3.3-3.3,3.3H221.4z"/>
</g>
</svg>
