<?xml version="1.0" encoding="utf-8"?>
<!-- Generator: Adobe Illustrator 24.1.2, SVG Export Plug-In . SVG Version: 6.00 Build 0)  -->
<svg version="1.1" id="Layer_1" xmlns="http://www.w3.org/2000/svg" xmlns:xlink="http://www.w3.org/1999/xlink" x="0px" y="0px"
	 viewBox="0 0 512 512" style="enable-background:new 0 0 512 512;" xml:space="preserve">
<style type="text/css">
	.st0{fill:#33ADAD;}
	.st1{fill:#FFFFFF;}
</style>
<path class="st0" d="M407.6,87.7C376.5,34.1,321.3,1.3,259.9,0c-2.6-0.1-5.3-0.1-7.9,0c-61.4,1.3-116.6,34-147.6,87.6
	c-31.8,54.8-32.6,120.7-2.3,176.1l127,232.4c0.1,0.1,0.1,0.2,0.2,0.3c5.6,9.7,15.6,15.5,26.8,15.5c11.2,0,21.2-5.8,26.8-15.5
	c0.1-0.1,0.1-0.2,0.2-0.3l127-232.4C440.2,208.3,439.3,142.5,407.6,87.7z"/>
<g>
	<g>
		<path class="st1" d="M177.4,239.3c-11.8,0-21.4-9.6-21.4-21.4v-80.8c0-11.8,9.6-21.4,21.4-21.4h140.4c11.8,0,21.4,9.6,21.4,21.4
			v4.2h4c7,0,12.8,5.8,12.8,12.8v46.8c0,7-5.8,12.8-12.8,12.8h-4v4.2c0,11.8-9.6,21.4-21.4,21.4
			C317.8,239.3,177.4,239.3,177.4,239.3z M177.4,124.5c-7,0-12.6,5.6-12.6,12.6v80.8c0,7,5.6,12.6,12.6,12.6h140.4
			c7,0,12.6-5.6,12.6-12.6v-8.6c0-2.4,2-4.4,4.4-4.4h8.4c2.2,0,4.2-1.8,4.2-4.2v-46.6c0-2.2-1.8-4.2-4.2-4.2h-8.4
			c-2.4,0-4.4-2-4.4-4.4v-8.6c0-7-5.6-12.6-12.6-12.6H177.4V124.5z"/>
	</g>
	<g>
		<path class="st1" d="M185.8,213.7c-2.4,0-4.4-2-4.4-4.4v-63.6c0-2.4,2-4.4,4.4-4.4c2.4,0,4.4,2,4.4,4.4v63.8
			C190.2,211.7,188.2,213.7,185.8,213.7z"/>
	</g>
</g>
</svg>
