<?xml version="1.0" encoding="utf-8"?>
<!-- Generator: Adobe Illustrator 24.1.2, SVG Export Plug-In . SVG Version: 6.00 Build 0)  -->
<svg version="1.1" id="Layer_1" xmlns="http://www.w3.org/2000/svg" xmlns:xlink="http://www.w3.org/1999/xlink" x="0px" y="0px"
	 viewBox="0 0 512 512" style="enable-background:new 0 0 512 512;" xml:space="preserve">
<style type="text/css">
	.st0{fill:#33ADAD;}
	.st1{fill:#FFFFFF;}
</style>
<path class="st0" d="M407.6,87.7C376.5,34.1,321.3,1.3,259.9,0c-2.6-0.1-5.3-0.1-7.9,0c-61.4,1.3-116.6,34-147.6,87.6
	c-31.8,54.8-32.6,120.7-2.3,176.1l127,232.4c0.1,0.1,0.1,0.2,0.2,0.3c5.6,9.7,15.6,15.5,26.8,15.5c11.2,0,21.2-5.8,26.8-15.5
	c0.1-0.1,0.1-0.2,0.2-0.3l127-232.4C440.2,208.3,439.3,142.5,407.6,87.7z"/>
<g>
	<g>
		<g>
			<path class="st1" d="M314.6,110.7c0-9.2-7.4-16.6-16.6-16.6c0-9.2-7.4-16.6-16.6-16.6h-62.7c-1.2,0-2.2,0.4-3,1.2l-33.5,33.3
				c-0.8,0.8-1.2,1.8-1.2,3v112.6c0,9.2,7.4,16.6,16.6,16.6c0,9.2,7.4,16.6,16.6,16.6c0,9.2,7.4,16.6,16.6,16.6h83.6
				c9.2,0,16.6-7.4,16.6-16.6V127.4C331.2,118.2,323.8,110.7,314.6,110.7 M214.4,91.5v10.8c0,4.6-3.8,8.4-8.4,8.4h-10.8L214.4,91.5z
				 M197.6,236c-4.6,0-8.4-3.8-8.4-8.4V119H206c9.2,0,16.6-7.4,16.6-16.6V85.7h58.5c4.6,0,8.4,3.8,8.4,8.4v133.5
				c0,4.6-3.8,8.4-8.4,8.4H197.6z M214.4,252.6c-4.6,0-8.4-3.8-8.4-8.4h75.2c9.2,0,16.6-7.4,16.6-16.6V102.3c4.6,0,8.4,3.8,8.4,8.4
				v133.7c0,4.6-3.8,8.4-8.4,8.4L214.4,252.6L214.4,252.6z M314.6,119c4.6,0,8.4,3.8,8.4,8.4V261c0,4.6-3.8,8.4-8.4,8.4H231
				c-4.6,0-8.4-3.8-8.4-8.4h75.2c9.2,0,16.6-7.4,16.6-16.6V119"/>
		</g>
	</g>
</g>
</svg>
