<?xml version="1.0" encoding="utf-8"?>
<!-- Generator: Adobe Illustrator 24.1.2, SVG Export Plug-In . SVG Version: 6.00 Build 0)  -->
<svg version="1.1" id="Layer_1" xmlns="http://www.w3.org/2000/svg" xmlns:xlink="http://www.w3.org/1999/xlink" x="0px" y="0px"
	 viewBox="0 0 512 512" style="enable-background:new 0 0 512 512;" xml:space="preserve">
<style type="text/css">
	.st0{fill:#33ADAD;}
	.st1{fill:#FFFFFF;}
</style>
<path class="st0" d="M407.6,87.7C376.5,34.1,321.3,1.3,259.9,0c-2.6-0.1-5.3-0.1-7.9,0c-61.4,1.3-116.6,34-147.6,87.6
	c-31.8,54.8-32.6,120.7-2.3,176.1l127,232.4c0.1,0.1,0.1,0.2,0.2,0.3c5.6,9.7,15.6,15.5,26.8,15.5c11.2,0,21.2-5.8,26.8-15.5
	c0.1-0.1,0.1-0.2,0.2-0.3l127-232.4C440.2,208.3,439.3,142.5,407.6,87.7z"/>
<g>
	<path class="st1" d="M307.6,77.5H204.4c-9.2,0-16.7,7.5-16.7,16.7v153.1c0,9.2,7.5,16.7,16.7,16.7h8.4l-0.9,7.6
		c-0.2,1.6,0.3,3.1,1.3,4.2c1,1.1,2.3,1.7,3.7,1.7h8.1c2.3,0,4.4-1.7,4.9-4l2.2-9.5h47.7l2.2,9.5c0.6,2.4,2.6,4,4.9,4h8.1
		c1.4,0,2.7-0.6,3.7-1.7c1-1.1,1.5-2.7,1.3-4.2l-0.9-7.6h8.4c9.2,0,16.7-7.5,16.7-16.7V94.2C324.3,85,316.8,77.5,307.6,77.5z
		 M194.7,247.3V94.2c0-5.3,4.3-9.7,9.7-9.7h48.1V257h-25.2H218h-13.7C199,257,194.7,252.6,194.7,247.3z M223.4,270.5H219l0.8-6.6
		h5.2L223.4,270.5z M293,270.5h-4.4l-1.5-6.6h5.2L293,270.5z M317.3,247.3c0,5.3-4.3,9.7-9.7,9.7H294h-9.3h-25.2V84.5h48.1
		c5.3,0,9.7,4.3,9.7,9.7V247.3z"/>
	<path class="st1" d="M240.5,181c1.9,0,3.5-1.6,3.5-3.5v-13.6c0-1.9-1.6-3.5-3.5-3.5s-3.5,1.6-3.5,3.5v13.6
		C237,179.4,238.6,181,240.5,181z"/>
	<path class="st1" d="M271.5,160.5c-1.9,0-3.5,1.6-3.5,3.5v13.6c0,1.9,1.6,3.5,3.5,3.5s3.5-1.6,3.5-3.5v-13.6
		C275,162,273.4,160.5,271.5,160.5z"/>
</g>
</svg>
