<?xml version="1.0" encoding="utf-8"?>
<!-- Generator: Adobe Illustrator 24.1.2, SVG Export Plug-In . SVG Version: 6.00 Build 0)  -->
<svg version="1.1" id="Layer_1" xmlns="http://www.w3.org/2000/svg" xmlns:xlink="http://www.w3.org/1999/xlink" x="0px" y="0px"
	 viewBox="0 0 512 512" style="enable-background:new 0 0 512 512;" xml:space="preserve">
<style type="text/css">
	.st0{fill:#33ADAD;}
	.st1{fill:#FFFFFF;}
</style>
<g>
	<path class="st0" d="M407.6,87.7C376.5,34.1,321.3,1.3,259.9,0c-2.6-0.1-5.3-0.1-7.9,0c-61.4,1.3-116.6,34-147.6,87.6
		c-31.8,54.8-32.6,120.7-2.3,176.1l127,232.4c0.1,0.1,0.1,0.2,0.2,0.3c5.6,9.7,15.6,15.5,26.8,15.5c11.2,0,21.2-5.8,26.8-15.5
		c0.1-0.1,0.1-0.2,0.2-0.3l127-232.4C440.2,208.3,439.3,142.5,407.6,87.7z"/>
	<g id="XMLID_1497_">
		<g id="XMLID_1687_">
			<path class="st1" d="M247.2,275.5c-5.4,0-9.7-4.4-9.7-9.7c0-4.4,3-8.3,7.3-9.4l1.5-0.4v-6.4c0-2.1-1.5-3.9-3.5-4.3
				c-9.1-1.8-17.6-5.3-25.3-10.5c-0.7-0.5-1.6-0.8-2.5-0.8c-1.2,0-2.2,0.4-3.1,1.3l-4.6,4.5l0.8,1.3c2.1,3.6,1.7,8.1-0.9,11.2
				c-1.8,2.1-4.3,3.4-7,3.5c-0.1,0-0.3,0-0.4,0c-2.6,0-5.1-1-6.9-2.8l-12.4-12.4c-1.8-1.8-2.8-4.3-2.8-6.9c0-2.6,1-5,2.8-6.9
				c1.8-1.8,4.3-2.8,6.9-2.8c1.7,0,3.5,0.5,4.9,1.3l1.3,0.8l4.5-4.5c1.5-1.5,1.7-3.8,0.5-5.5c-5.2-7.7-8.7-16.2-10.5-25.3
				c-0.4-2.1-2.2-3.5-4.3-3.5h-6.4l-0.4,1.5c-0.4,1.7-1.4,3.3-2.7,4.6c-1.8,1.8-4.2,2.7-6.8,2.7c-0.1,0-0.2,0-0.3,0
				c-5.2-0.2-9.4-4.5-9.4-9.9v-17.4c0-2.7,1.1-5.1,3-7c1.8-1.8,4.2-2.7,6.7-2.7c0.1,0,0.2,0,0.3,0c4.2,0.1,7.9,3.1,9,7.3l0.4,1.5
				h6.4c2.1,0,3.9-1.5,4.3-3.5c1.8-9.1,5.3-17.6,10.5-25.3c1.2-1.7,1-4.1-0.5-5.5l-4.5-4.5l-1.3,0.8c-1.5,0.9-3.2,1.3-4.9,1.3
				c-2.6,0-5-1-6.9-2.8c-3.8-3.8-3.8-10,0-13.7l12.4-12.4c1.8-1.8,4.3-2.8,6.9-2.8s5,1,6.9,2.8c1.8,1.8,2.8,4.3,2.8,6.9
				c0,1.7-0.5,3.5-1.3,4.9l-0.8,1.3l4.5,4.5c0.8,0.8,1.9,1.3,3.1,1.3c0.9,0,1.7-0.3,2.5-0.8c7.7-5.2,16.2-8.7,25.3-10.5
				c2.1-0.4,3.5-2.2,3.5-4.3V99l-1.5-0.4c-4.3-1.1-7.3-5-7.3-9.4c0-5.4,4.4-9.7,9.7-9.7h17.6c5.4,0,9.7,4.4,9.7,9.7
				c0,4.4-3,8.3-7.3,9.4l-1.5,0.4v6.4c0,2.1,1.5,3.9,3.5,4.3c9.1,1.8,17.6,5.3,25.3,10.5c0.7,0.5,1.6,0.8,2.5,0.8
				c1.2,0,2.2-0.4,3.1-1.3l4.5-4.5l-0.8-1.3c-2.3-3.8-1.6-8.7,1.5-11.8c1.8-1.8,4.3-2.8,6.9-2.8c2.6,0,5,1,6.9,2.8l12.4,12.4
				c3.8,3.8,3.8,10,0,13.7c-1.8,1.8-4.3,2.8-6.9,2.8c-1.7,0-3.5-0.5-4.9-1.3l-1.3-0.8l-4.5,4.5c-1.5,1.5-1.7,3.8-0.5,5.5
				c5.2,7.7,8.7,16.2,10.5,25.3c0.4,2.1,2.2,3.5,4.3,3.5h6.4l0.4-1.5c1.1-4,4.5-6.9,8.5-7.3c0.3,0,0.6,0,0.9,0
				c2.4,0,4.8,0.9,6.6,2.5c2,1.8,3.2,4.5,3.2,7.2v17.6c0,2.7-1.2,5.3-3.2,7.2c-1.8,1.6-4.1,2.5-6.6,2.5c-0.3,0-0.6,0-0.9,0
				c-4-0.4-7.4-3.3-8.5-7.3l-0.4-1.5h-6.4c-2.1,0-3.9,1.5-4.3,3.5c-1.8,9.1-5.3,17.6-10.5,25.3c-1.2,1.7-1,4.1,0.5,5.5l4.5,4.5
				l1.3-0.8c1.5-0.9,3.2-1.3,4.9-1.3c2.6,0,5,1,6.9,2.8c1.8,1.8,2.8,4.3,2.8,6.9c0,2.6-1,5-2.8,6.9L319.1,253
				c-1.8,1.8-4.3,2.8-6.9,2.8c-0.1,0-0.3,0-0.4,0c-2.7-0.1-5.3-1.4-7-3.5c-2.6-3.1-2.9-7.6-0.9-11.2l0.8-1.3l-4.6-4.6
				c-0.8-0.8-1.9-1.3-3.1-1.3c-0.9,0-1.7,0.3-2.5,0.8c-7.7,5.2-16.2,8.7-25.3,10.5c-2,0.4-3.5,2.2-3.5,4.3v6.4l1.5,0.4
				c4.3,1.1,7.3,5,7.3,9.4c0,5.4-4.4,9.7-9.7,9.7H247.2z M215,230.3c1.6,0,3.2,0.5,4.6,1.4c7.3,4.9,15.3,8.2,23.9,9.9
				c3.8,0.7,6.6,4.1,6.6,8v7.4c0,1.6-1.3,2.9-2.9,2.9c-3.3,0-5.9,2.6-5.9,5.9s2.6,5.9,5.9,5.9h17.6c3.3,0,5.9-2.6,5.9-5.9
				s-2.6-5.9-5.9-5.9c-1.6,0-2.9-1.3-2.9-2.9v-7.4c0-3.9,2.8-7.3,6.6-8c8.6-1.7,16.6-5,23.9-9.9c1.4-0.9,3-1.4,4.6-1.4
				c2.2,0,4.2,0.8,5.8,2.4l5.4,5.4c0.5,0.5,0.8,1.2,0.8,1.9s-0.3,1.4-0.8,1.9c-2.2,2.2-2.4,5.8-0.5,8.1c1.1,1.3,2.6,2,4.3,2.1
				c0.1,0,0.2,0,0.3,0c1.6,0,3.1-0.6,4.2-1.7l12.4-12.4c1.1-1.1,1.7-2.6,1.7-4.2s-0.6-3.1-1.7-4.2c-1.1-1.1-2.6-1.7-4.2-1.7
				c-1.6,0-3.1,0.6-4.2,1.7l-0.1,0.1c-0.5,0.5-1.2,0.8-1.9,0.8c-0.7,0-1.4-0.3-1.9-0.8l-5.4-5.4c-2.7-2.7-3.2-7.1-1-10.4
				c4.9-7.3,8.2-15.3,9.9-23.9c0.7-3.8,4.1-6.6,8-6.6h7.6c1.5,0,2.7,1.2,2.7,2.7c0,3.1,2.4,5.8,5.4,6.1c0.2,0,0.4,0,0.5,0
				c1.5,0,2.9-0.5,4-1.5c1.2-1.1,1.9-2.7,1.9-4.4v-17.6c0-1.7-0.7-3.2-1.9-4.4c-1.1-1-2.5-1.5-4-1.5c-0.2,0-0.4,0-0.5,0
				c-3,0.3-5.4,2.9-5.4,6.1c0,1.5-1.2,2.7-2.7,2.7h-7.6c-3.9,0-7.3-2.8-8-6.6c-1.7-8.6-5-16.6-9.9-23.9c-2.2-3.3-1.8-7.6,1-10.4
				l5.2-5.2c0.5-0.5,1.3-0.8,2-0.8c0.8,0,1.5,0.3,2,0.8c1.1,1.1,2.6,1.7,4.2,1.7c1.6,0,3.1-0.6,4.2-1.7c2.3-2.3,2.3-6,0-8.4
				l-12.4-12.4c-1.1-1.1-2.6-1.7-4.2-1.7c-1.6,0-3.1,0.6-4.2,1.7c-1.1,1.1-1.7,2.6-1.7,4.2s0.6,3.1,1.7,4.2c1.1,1.1,1.1,3,0,4.1
				l-5.2,5.2c-1.5,1.5-3.6,2.4-5.8,2.4c-1.6,0-3.2-0.5-4.6-1.4c-7.3-4.9-15.3-8.2-23.9-9.9c-3.8-0.7-6.6-4.1-6.6-8V98
				c0-1.6,1.3-2.9,2.9-2.9c3.3,0,5.9-2.6,5.9-5.9s-2.6-5.9-5.9-5.9h-17.6c-3.3,0-5.9,2.6-5.9,5.9s2.6,5.9,5.9,5.9
				c1.6,0,2.9,1.3,2.9,2.9v7.4c0,3.9-2.8,7.3-6.6,8c-8.6,1.7-16.6,5-23.9,9.9c-1.4,0.9-3,1.4-4.6,1.4c-2.2,0-4.2-0.8-5.8-2.4
				l-5.2-5.2c-0.5-0.5-0.8-1.3-0.8-2c0-0.8,0.3-1.5,0.8-2c2.3-2.3,2.3-6.1,0-8.4c-1.1-1.1-2.6-1.7-4.2-1.7c-1.6,0-3.1,0.6-4.2,1.7
				l-12.4,12.4c-2.3,2.3-2.3,6,0,8.4c1.1,1.1,2.6,1.7,4.2,1.7s3.1-0.6,4.2-1.7c0.5-0.5,1.3-0.8,2-0.8s1.5,0.3,2,0.8l5.2,5.2
				c2.7,2.7,3.2,7.1,1,10.4c-4.9,7.3-8.2,15.3-9.9,23.9c-0.7,3.8-4.1,6.6-8,6.6h-7.6c-1.5,0-2.7-1.2-2.7-2.7c0-3.3-2.6-6-5.7-6.1
				l-0.2,0c-1.5,0-3,0.6-4.1,1.7c-1.2,1.1-1.8,2.6-1.8,4.2v17.4c0,3.2,2.6,6,5.7,6.1l0.2,0c1.5,0,3-0.6,4.1-1.7
				c1.2-1.1,1.8-2.6,1.8-4.3c0-1.6,1.3-2.9,2.9-2.9h7.4c3.9,0,7.3,2.8,8,6.6c1.7,8.6,5,16.6,9.9,23.9c2.2,3.3,1.8,7.6-1,10.4
				l-5.4,5.4c-0.5,0.5-1.2,0.8-1.9,0.8s-1.4-0.3-1.9-0.8l-0.1-0.1c-1.1-1.1-2.6-1.7-4.2-1.7s-3.1,0.6-4.2,1.7
				c-1.1,1.1-1.7,2.6-1.7,4.2s0.6,3.1,1.7,4.2l12.4,12.4c1.1,1.1,2.6,1.7,4.2,1.7c0.1,0,0.2,0,0.3,0c1.7-0.1,3.2-0.8,4.3-2.1
				c1.9-2.3,1.7-5.9-0.5-8.1c-0.5-0.5-0.8-1.2-0.8-1.9c0-0.7,0.3-1.4,0.8-1.9l5.4-5.4C210.7,231.1,212.8,230.3,215,230.3z"/>
		</g>
		<g id="XMLID_1654_">
			<path class="st1" d="M240.9,159.1c-7.9,0-14.4-6.5-14.4-14.4s6.5-14.4,14.4-14.4s14.4,6.5,14.4,14.4S248.9,159.1,240.9,159.1z
				 M240.9,134.1c-5.8,0-10.6,4.8-10.6,10.6s4.8,10.6,10.6,10.6s10.6-4.8,10.6-10.6S246.8,134.1,240.9,134.1z"/>
		</g>
		<g id="XMLID_1656_">
			<path class="st1" d="M229.8,214.5c-6.7,0-12.2-5.5-12.2-12.2c0-6.7,5.5-12.2,12.2-12.2s12.2,5.5,12.2,12.2
				C242,209,236.6,214.5,229.8,214.5z M229.8,193.9c-4.6,0-8.4,3.8-8.4,8.4s3.8,8.4,8.4,8.4s8.4-3.8,8.4-8.4
				S234.4,193.9,229.8,193.9z"/>
		</g>
		<g id="XMLID_1104_">
			<path class="st1" d="M283.3,210.6c-11.2,0-20.7-8.4-22-19.5c-0.1-1,0.6-2,1.7-2.1c0.1,0,0.1,0,0.2,0c1,0,1.8,0.7,1.9,1.7
				c1.1,9.2,8.9,16.2,18.2,16.2c10.1,0,18.3-8.2,18.3-18.3c0-9.4-7-17.2-16.3-18.2c-0.5-0.1-1-0.3-1.3-0.7c-0.3-0.4-0.5-0.9-0.4-1.4
				c0.1-1,0.9-1.7,1.9-1.7c0.1,0,0.1,0,0.2,0c11.2,1.2,19.7,10.7,19.7,22C305.4,200.7,295.5,210.6,283.3,210.6z"/>
		</g>
	</g>
</g>
</svg>
