<?xml version="1.0" encoding="utf-8"?>
<!-- Generator: Adobe Illustrator 24.1.2, SVG Export Plug-In . SVG Version: 6.00 Build 0)  -->
<svg version="1.1" id="Layer_1" xmlns="http://www.w3.org/2000/svg" xmlns:xlink="http://www.w3.org/1999/xlink" x="0px" y="0px"
	 viewBox="0 0 512 512" style="enable-background:new 0 0 512 512;" xml:space="preserve">
<style type="text/css">
	.st0{fill:#33ADAD;}
	.st1{fill:#FFFFFF;}
</style>
<path class="st0" d="M407.6,87.7C376.5,34.1,321.3,1.3,259.9,0c-2.6-0.1-5.3-0.1-7.9,0c-61.4,1.3-116.6,34-147.6,87.6
	c-31.8,54.8-32.6,120.7-2.3,176.1l127,232.4c0.1,0.1,0.1,0.2,0.2,0.3c5.6,9.7,15.6,15.5,26.8,15.5c11.2,0,21.2-5.8,26.8-15.5
	c0.1-0.1,0.1-0.2,0.2-0.3l127-232.4C440.2,208.3,439.3,142.5,407.6,87.7z"/>
<path class="st1" d="M334.5,150.5l20.8-22.9c0.2-0.3,0.4-0.5,0.5-0.9c0.6-1.5-0.1-3.1-1.6-3.7l-73.4-29.4c-1.1-0.4-2.3-0.2-3.1,0.6
	L256,115.9l-21.7-21.7c-0.8-0.8-2-1.1-3.1-0.6L157.8,123c-0.3,0.1-0.6,0.3-0.9,0.5c-1.2,1.1-1.3,2.9-0.2,4l20.8,22.9l-20.8,22.9
	c-0.2,0.3-0.4,0.5-0.5,0.9c-0.6,1.5,0.1,3.1,1.6,3.7l20.8,8.3v48.9c0,1.2,0.8,2.3,2,2.7l74.5,23.7c0.2,0.1,0.3,0.1,0.5,0.1
	c0,0,0,0,0,0c0.1,0,0.3,0,0.4,0v0c0,0,0,0,0,0c0.4,0,0.8-0.1,1.1-0.2l74.3-23.6c1.2-0.4,2-1.5,2-2.7v-48.9l20.8-8.3
	c0.3-0.1,0.6-0.3,0.9-0.5c1.2-1.1,1.3-2.9,0.2-4L334.5,150.5z M256.1,177.9l-67-27.4l67-27.4l67,27.4L256.1,177.9z M280.5,99.6
	l67.9,27.1l-18.5,20.3L261.1,119L280.5,99.6z M231.6,99.6L251,119l-68.7,28.1l-18.5-20.3L231.6,99.6z M182.3,153.9L251,182
	l-19.3,19.3l-67.9-27.1L182.3,153.9z M184.3,188.6l46.9,18.8c0.3,0.1,0.7,0.2,1.1,0.2c0.8,0,1.5-0.3,2-0.9l18.8-18.8V255l-68.8-21.9
	V188.6z M327.7,233.1L258.9,255v-67.1l18.9,18.9c0.5,0.5,1.3,0.8,2,0.8l0,0c0.4,0,0.7-0.1,1.1-0.2l46.9-18.8V233.1z M329.6,181.7
	c0,0-0.1,0-0.1,0.1l-49,19.6L261.1,182l68.7-28.1l18.5,20.3L329.6,181.7z"/>
</svg>
