<?xml version="1.0" encoding="utf-8"?>
<!-- Generator: Adobe Illustrator 24.1.2, SVG Export Plug-In . SVG Version: 6.00 Build 0)  -->
<svg version="1.1" id="Layer_1" xmlns="http://www.w3.org/2000/svg" xmlns:xlink="http://www.w3.org/1999/xlink" x="0px" y="0px"
	 viewBox="0 0 512 512" style="enable-background:new 0 0 512 512;" xml:space="preserve">
<style type="text/css">
	.st0{fill:#33ADAD;}
	.st1{fill:#FFFFFF;}
</style>
<path class="st0" d="M407.6,87.7C376.5,34.1,321.3,1.3,259.9,0c-2.6-0.1-5.3-0.1-7.9,0c-61.4,1.3-116.6,34-147.6,87.6
	c-31.8,54.8-32.6,120.7-2.3,176.1l127,232.4c0.1,0.1,0.1,0.2,0.2,0.3c5.6,9.7,15.6,15.5,26.8,15.5c11.2,0,21.2-5.8,26.8-15.5
	c0.1-0.1,0.1-0.2,0.2-0.3l127-232.4C440.2,208.3,439.3,142.5,407.6,87.7z"/>
<g>
	<g>
		<path class="st1" d="M256,77.5c-55.2,0-100,44.8-100,100s44.8,100,100,100s100-44.8,100-100S311.2,77.5,256,77.5z M256,268.8
			c-50.4,0-91.3-41-91.3-91.3s41-91.3,91.3-91.3s91.3,41,91.3,91.3S306.4,268.8,256,268.8z"/>
	</g>
</g>
<g>
	<g>
		<path class="st1" d="M308,155.8h-30.4v-30.4c0-2.4-1.9-4.3-4.3-4.3h-34.7c-2.4,0-4.3,1.9-4.3,4.3v30.4H204c-2.4,0-4.3,1.9-4.3,4.3
			v34.7c0,2.4,1.9,4.3,4.3,4.3h30.4v30.4c0,2.4,1.9,4.3,4.3,4.3h34.7c2.4,0,4.3-1.9,4.3-4.3v-30.4H308c2.4,0,4.3-1.9,4.3-4.3v-34.7
			C312.1,157.7,310.2,155.8,308,155.8z M304,190.5h-0.2h-30.4c-2.4,0-4.3,1.9-4.3,4.3v30.4h-26v-30.4c0-2.4-1.9-4.3-4.3-4.3h-30.4
			v-26h30.4c2.4,0,4.3-1.9,4.3-4.3v-30.4h26.3v30.4c0,2.4,1.9,4.3,4.3,4.3H304V190.5z"/>
	</g>
</g>
</svg>
