<?xml version="1.0" encoding="utf-8"?>
<!-- Generator: Adobe Illustrator 24.1.2, SVG Export Plug-In . SVG Version: 6.00 Build 0)  -->
<svg version="1.1" id="Layer_1" xmlns="http://www.w3.org/2000/svg" xmlns:xlink="http://www.w3.org/1999/xlink" x="0px" y="0px"
	 viewBox="0 0 512 512" style="enable-background:new 0 0 512 512;" xml:space="preserve">
<style type="text/css">
	.st0{fill:#4EB500;}
	.st1{fill:#FFFFFF;}
</style>
<g>
	<path class="st0" d="M407.6,87.7C376.5,34.1,321.3,1.3,259.9,0c-2.6-0.1-5.3-0.1-7.9,0c-61.4,1.3-116.6,34-147.6,87.6
		c-31.8,54.8-32.6,120.7-2.3,176.1l127,232.4c0.1,0.1,0.1,0.2,0.2,0.3c5.6,9.7,15.6,15.5,26.8,15.5c11.2,0,21.2-5.8,26.8-15.5
		c0.1-0.1,0.1-0.2,0.2-0.3l127-232.4C440.2,208.3,439.3,142.5,407.6,87.7z"/>
	<g>
		<path class="st1" d="M329.3,126.9l-46.2-46.2c-1.1-1.1-2.5-1.7-4.1-1.7h-80.8c-9.5,0-17.3,7.8-17.3,17.3v162.3
			c0,9.5,7.8,17.3,17.3,17.3h115.4c9.5,0,17.3-7.8,17.3-17.3V131C331,129.4,330.3,127.9,329.3,126.9z M284.8,98.7l26.5,26.5h-20.7
			c-3.2,0-5.8-2.6-5.8-5.8V98.7z M313.7,264.4H198.3c-3.2,0-5.8-2.6-5.8-5.8V96.4c0-3.2,2.6-5.8,5.8-5.8h75v28.8
			c0,9.5,7.8,17.3,17.3,17.3h28.8v121.9C319.5,261.8,316.9,264.4,313.7,264.4z"/>
		<path class="st1" d="M290.6,160.6h-69.2c-3.2,0-5.8,2.6-5.8,5.8c0,3.2,2.6,5.8,5.8,5.8h69.2c3.2,0,5.8-2.6,5.8-5.8
			C296.4,163.2,293.8,160.6,290.6,160.6z"/>
		<path class="st1" d="M290.6,183.7h-69.2c-3.2,0-5.8,2.6-5.8,5.8s2.6,5.8,5.8,5.8h69.2c3.2,0,5.8-2.6,5.8-5.8
			S293.8,183.7,290.6,183.7z"/>
		<path class="st1" d="M290.6,206.7h-69.2c-3.2,0-5.8,2.6-5.8,5.8s2.6,5.8,5.8,5.8h69.2c3.2,0,5.8-2.6,5.8-5.8
			S293.8,206.7,290.6,206.7z"/>
		<path class="st1" d="M267.5,229.8h-46.2c-3.2,0-5.8,2.6-5.8,5.8c0,3.2,2.6,5.8,5.8,5.8h46.2c3.2,0,5.8-2.6,5.8-5.8
			C273.3,232.4,270.7,229.8,267.5,229.8z"/>
	</g>
</g>
</svg>
