<?xml version="1.0" encoding="utf-8"?>
<!-- Generator: Adobe Illustrator 24.1.2, SVG Export Plug-In . SVG Version: 6.00 Build 0)  -->
<svg version="1.1" id="Layer_1" xmlns="http://www.w3.org/2000/svg" xmlns:xlink="http://www.w3.org/1999/xlink" x="0px" y="0px"
	 viewBox="0 0 512 512" style="enable-background:new 0 0 512 512;" xml:space="preserve">
<style type="text/css">
	.st0{fill:#33ADAD;}
	.st1{fill:#FFFFFF;}
</style>
<path class="st0" d="M407.6,87.7C376.5,34.1,321.3,1.3,259.9,0c-2.6-0.1-5.3-0.1-7.9,0c-61.4,1.3-116.6,34-147.6,87.6
	c-31.8,54.8-32.6,120.7-2.3,176.1l127,232.4c0.1,0.1,0.1,0.2,0.2,0.3c5.6,9.7,15.6,15.5,26.8,15.5c11.2,0,21.2-5.8,26.8-15.5
	c0.1-0.1,0.1-0.2,0.2-0.3l127-232.4C440.2,208.3,439.3,142.5,407.6,87.7z"/>
<g>
	<path class="st1" d="M220.2,277.5c-0.8,0-1.4-0.2-2.2-0.6c-1.6-1-2.2-3-1.6-4.8l33.6-78.8h-53.8c-1.2,0-2.4-0.6-3.2-1.6
		s-1-2.4-0.6-3.6l35.8-108c0.6-1.6,2.2-2.6,3.8-2.6h71.8c1.4,0,2.8,0.8,3.4,2c0.6,1.2,0.8,2.8,0,4l-44.4,78.2h53
		c1.6,0,3,0.8,3.6,2.4c0.6,1.4,0.4,3-0.6,4.2l-95.6,108C222.4,277.1,221.2,277.5,220.2,277.5L220.2,277.5z M201.6,185.5H256
		c1.4,0,2.6,0.6,3.2,1.8c0.8,1.2,0.8,2.4,0.4,3.8l-24,56.4l0,0l71.4-78h-51c-1.4,0-2.6-0.8-3.4-2s-0.8-2.6,0-4L297,85.3h-62
		L201.6,185.5z"/>
</g>
</svg>
