<?xml version="1.0" encoding="utf-8"?>
<!-- Generator: Adobe Illustrator 24.1.2, SVG Export Plug-In . SVG Version: 6.00 Build 0)  -->
<svg version="1.1" id="Layer_1" xmlns="http://www.w3.org/2000/svg" xmlns:xlink="http://www.w3.org/1999/xlink" x="0px" y="0px"
	 viewBox="0 0 512 512" style="enable-background:new 0 0 512 512;" xml:space="preserve">
<style type="text/css">
	.st0{fill:#33ADAD;}
	.st1{fill:#FFFFFF;}
</style>
<path class="st0" d="M407.6,87.7C376.5,34.1,321.3,1.3,259.9,0c-2.6-0.1-5.3-0.1-7.9,0c-61.4,1.3-116.6,34-147.6,87.6
	c-31.8,54.8-32.6,120.7-2.3,176.1l127,232.4c0.1,0.1,0.1,0.2,0.2,0.3c5.6,9.7,15.6,15.5,26.8,15.5c11.2,0,21.2-5.8,26.8-15.5
	c0.1-0.1,0.1-0.2,0.2-0.3l127-232.4C440.2,208.3,439.3,142.5,407.6,87.7z"/>
<g>
	<path class="st1" d="M325.3,171.5l9.8-45c1.2,0.2,2.6-0.4,3.6-1.2l16-16c1.8-1.8,1.8-4.6,0-6.4l-24-24c-1.8-1.8-4.6-1.8-6.4,0
		l-16,16c-1,1-1.4,2.2-1.2,3.6l-45,9.8c-0.8,0.2-1.6,0.6-2.2,1.2l-24,24l-37.4,36.8l-37.2,37.2c-7,7-7,18.6,0,25.8
		c3.8,3.8,9,5.6,14.2,5.2c-0.4,5,1.4,10.2,5.2,14.2c3.8,3.8,9,5.6,14.2,5.2c-0.4,5,1.4,10.2,5.2,14.2c7,7,18.6,7,25.8,0l37.2-37.2
		l37-37l24-24C324.6,173.1,325,172.3,325.3,171.5z M327.3,88.1l17.8,17.8l-9.8,9.8l-0.2-0.2l-17.6-17.6l-0.2-0.2L327.3,88.1
		L327.3,88.1z M313,106.1l14,14l-10.4,48.2l-20,20l-51.6-52l20-20L313,106.1z M259.9,225.3l-52-52l30.8-30.8l51.8,51.8L259.9,225.3z
		 M206.3,265.7c-3.6-3.6-3.6-9.4,0-13c1.8-1.8,1.8-4.6,0-6.4c-1.8-1.8-4.6-1.8-6.4,0c-3.6,3.6-9.4,3.6-13,0s-3.6-9.4,0-13
		c1.8-1.8,1.8-4.6,0-6.4c-1.8-1.8-4.6-1.8-6.4,0c-3.6,3.6-9.4,3.6-13,0c-3.6-3.6-3.6-9.4,0-13l34.2-34.2l51.8,51.8l-34.2,34.2
		C215.7,269.3,209.9,269.3,206.3,265.7z"/>
</g>
</svg>
