<?xml version="1.0" encoding="utf-8"?>
<!-- Generator: Adobe Illustrator 24.1.2, SVG Export Plug-In . SVG Version: 6.00 Build 0)  -->
<svg version="1.1" id="Capa_1" xmlns="http://www.w3.org/2000/svg" xmlns:xlink="http://www.w3.org/1999/xlink" x="0px" y="0px"
	 viewBox="0 0 512 512" style="enable-background:new 0 0 512 512;" xml:space="preserve">
<style type="text/css">
	.st0{fill:#33ADAD;}
</style>
<g>
	<path class="st0" d="M29.7,507c-5.5,0-10-4.5-10-10s4.5-10,10-10h44.6V15c0-5.5,4.5-10,10-10h343.4c5.5,0,10,4.5,10,10v472h44.6
		c5.5,0,10,4.5,10,10s-4.5,10-10,10H29.7z M322.1,354.7c5.5,0,10,4.5,10,10V487h85.6V25H94.3v462h85.6V364.7c0-5.5,4.5-10,10-10
		H322.1z M199.9,487h112.3V374.7H199.9V487z"/>
	<path class="st0" d="M150.2,164.8c-5.5,0-10-4.5-10-10V81.3c0-5.5,4.5-10,10-10h73.5c5.5,0,10,4.5,10,10v73.5c0,5.5-4.5,10-10,10
		H150.2z M160.2,144.8h53.5V91.3h-53.5V144.8z"/>
	<path class="st0" d="M288.3,164.8c-5.5,0-10-4.5-10-10V81.3c0-5.5,4.5-10,10-10h73.5c5.5,0,10,4.5,10,10v73.5c0,5.5-4.5,10-10,10
		H288.3z M298.3,144.8h53.5V91.3h-53.5V144.8z"/>
	<path class="st0" d="M150.2,304.5c-5.5,0-10-4.5-10-10V221c0-5.5,4.5-10,10-10h73.5c5.5,0,10,4.5,10,10v73.5c0,5.5-4.5,10-10,10
		H150.2z M160.2,284.5h53.5V231h-53.5V284.5z"/>
	<path class="st0" d="M288.3,304.5c-5.5,0-10-4.5-10-10V221c0-5.5,4.5-10,10-10h73.5c5.5,0,10,4.5,10,10v73.5c0,5.5-4.5,10-10,10
		H288.3z M298.3,284.5h53.5V231h-53.5V284.5z"/>
</g>
</svg>
